<svg width="32" height="33" viewBox="0 0 32 33" fill="none" xmlns="http://www.w3.org/2000/svg">
<path d="M18.0338 5.92066C18.0677 5.78979 18.1263 5.66709 18.2063 5.55958C18.2862 5.45208 18.3859 5.36187 18.4997 5.29411C18.6134 5.22636 18.739 5.18238 18.8693 5.1647C18.9995 5.14701 19.1319 5.15597 19.2588 5.19105C21.1126 5.68985 22.804 6.68926 24.1587 8.08633C25.5135 9.48341 26.4826 11.2277 26.9663 13.1394C27.0003 13.2703 27.009 13.4068 26.9918 13.5411C26.9747 13.6754 26.932 13.8049 26.8663 13.9222C26.8006 14.0395 26.7131 14.1424 26.6089 14.2248C26.5047 14.3072 26.3857 14.3677 26.2588 14.4027C26.1743 14.4256 26.0873 14.4373 26 14.4375C25.7796 14.4375 25.5655 14.3624 25.3907 14.224C25.216 14.0855 25.0905 13.8914 25.0338 13.6718C24.6393 12.1112 23.8483 10.6872 22.7425 9.54682C21.6366 8.40641 20.2559 7.59076 18.7425 7.18394C18.6155 7.14908 18.4964 7.08873 18.392 7.00634C18.2876 6.92396 18.2 6.82117 18.1342 6.70384C18.0683 6.5865 18.0256 6.45694 18.0084 6.32256C17.9911 6.18817 17.9998 6.0516 18.0338 5.92066ZM17.7425 11.3089C19.4663 11.7833 20.5738 12.9254 21.0338 14.703C21.0905 14.9226 21.216 15.1167 21.3907 15.2552C21.5655 15.3937 21.7796 15.4687 22 15.4687C22.0873 15.4685 22.1743 15.4568 22.2588 15.4339C22.3857 15.3989 22.5047 15.3385 22.6089 15.256C22.7131 15.1736 22.8006 15.0708 22.8663 14.9535C22.932 14.8362 22.9747 14.7066 22.9918 14.5723C23.009 14.438 23.0003 14.3015 22.9663 14.1707C22.3263 11.7008 20.6538 9.97605 18.2588 9.31605C18.0025 9.24545 17.7295 9.28273 17.4999 9.41968C17.2703 9.55663 17.1028 9.78203 17.0344 10.0463C16.9659 10.3106 17.0021 10.5921 17.1349 10.8289C17.2677 11.0657 17.4862 11.2383 17.7425 11.3089ZM27.985 23.6002C27.7621 25.3469 26.9303 26.9502 25.6449 28.1107C24.3595 29.2711 22.7084 29.9094 21 29.9062C11.075 29.9062 3.00001 21.5789 3.00001 11.3437C2.99695 9.58198 3.61587 7.87929 4.74118 6.55372C5.86649 5.22814 7.42122 4.37032 9.11501 4.14047C9.54333 4.08653 9.97707 4.1769 10.3515 4.39807C10.7259 4.61924 11.0209 4.95936 11.1925 5.36765L13.8325 11.4456V11.4611C13.9639 11.7736 14.0181 12.1148 13.9904 12.4542C13.9627 12.7937 13.8539 13.1207 13.6738 13.4062C13.6513 13.4411 13.6275 13.4733 13.6025 13.5055L11 16.6869C11.9363 18.6489 13.9263 20.683 15.8538 21.6511L18.8963 18.9814C18.9261 18.9555 18.9574 18.9314 18.99 18.9093C19.2666 18.719 19.5849 18.6029 19.916 18.5713C20.2471 18.5398 20.5806 18.5939 20.8863 18.7288L20.9025 18.7365L26.7913 21.4577C27.1879 21.634 27.5185 21.938 27.7337 22.3242C27.9489 22.7104 28.037 23.158 27.985 23.6002ZM26 23.3423C26 23.3423 25.9913 23.3423 25.9863 23.3423L20.1113 20.6289L17.0675 23.2985C17.038 23.3243 17.0071 23.3484 16.975 23.3707C16.6872 23.5687 16.3545 23.6863 16.0094 23.7121C15.6644 23.7379 15.3187 23.6709 15.0063 23.5177C12.665 22.3511 10.3313 19.9624 9.19876 17.5738C9.0488 17.2539 8.9815 16.8995 9.0034 16.5449C9.0253 16.1904 9.13565 15.8476 9.32376 15.55C9.34496 15.515 9.36879 15.4818 9.39501 15.4507L12 12.2654L9.37501 6.20683C9.37452 6.20169 9.37452 6.19651 9.37501 6.19137C8.16283 6.35443 7.04986 6.96759 6.24453 7.91602C5.43919 8.86445 4.99674 10.0831 5.00001 11.3437C5.00464 15.7184 6.69184 19.9124 9.69142 23.0057C12.691 26.099 16.758 27.839 21 27.8437C22.2217 27.8481 23.4031 27.3934 24.3233 26.5647C25.2436 25.736 25.8396 24.59 26 23.3411V23.3423Z" fill="white"/>
</svg>
