<svg width="32" height="32" viewBox="0 0 32 32" fill="none" xmlns="http://www.w3.org/2000/svg">
<path d="M28.8649 26.5001C26.9612 23.2088 24.0274 20.8488 20.6037 19.7301C22.2972 18.7219 23.613 17.1857 24.3489 15.3573C25.0849 13.5289 25.2003 11.5096 24.6775 9.60925C24.1547 7.70894 23.0225 6.03279 21.4549 4.8382C19.8873 3.64361 17.9708 2.99664 15.9999 2.99664C14.029 2.99664 12.1126 3.64361 10.5449 4.8382C8.97731 6.03279 7.84516 7.70894 7.32234 9.60925C6.79952 11.5096 6.91495 13.5289 7.6509 15.3573C8.38684 17.1857 9.70262 18.7219 11.3962 19.7301C7.97241 20.8476 5.03866 23.2076 3.13491 26.5001C3.0651 26.6139 3.01879 26.7406 2.99872 26.8726C2.97865 27.0046 2.98523 27.1393 3.01807 27.2688C3.0509 27.3982 3.10933 27.5197 3.1899 27.6262C3.27047 27.7327 3.37156 27.822 3.48719 27.8888C3.60283 27.9556 3.73067 27.9985 3.86317 28.0151C3.99568 28.0317 4.13016 28.0216 4.25869 27.9854C4.38722 27.9491 4.50719 27.8875 4.61152 27.8042C4.71585 27.7208 4.80244 27.6174 4.86616 27.5001C7.22116 23.4301 11.3837 21.0001 15.9999 21.0001C20.6162 21.0001 24.7787 23.4301 27.1337 27.5001C27.1974 27.6174 27.284 27.7208 27.3883 27.8042C27.4926 27.8875 27.6126 27.9491 27.7411 27.9854C27.8697 28.0216 28.0041 28.0317 28.1367 28.0151C28.2692 27.9985 28.397 27.9556 28.5126 27.8888C28.6283 27.822 28.7294 27.7327 28.8099 27.6262C28.8905 27.5197 28.9489 27.3982 28.9818 27.2688C29.0146 27.1393 29.0212 27.0046 29.0011 26.8726C28.981 26.7406 28.9347 26.6139 28.8649 26.5001ZM8.99991 12.0001C8.99991 10.6156 9.41045 9.2622 10.1796 8.11106C10.9488 6.95991 12.042 6.0627 13.3211 5.53289C14.6002 5.00308 16.0077 4.86445 17.3655 5.13455C18.7234 5.40465 19.9707 6.07133 20.9497 7.0503C21.9286 8.02927 22.5953 9.27655 22.8654 10.6344C23.1355 11.9923 22.9969 13.3998 22.4671 14.6788C21.9373 15.9579 21.04 17.0512 19.8889 17.8203C18.7378 18.5895 17.3844 19.0001 15.9999 19.0001C14.144 18.9981 12.3647 18.2599 11.0524 16.9476C9.74003 15.6353 9.0019 13.856 8.99991 12.0001Z" fill="white"/>
</svg>
