<?xml version="1.0" encoding="UTF-8"?>
<svg xmlns="http://www.w3.org/2000/svg" xmlns:xlink="http://www.w3.org/1999/xlink"
     width="85" height="55" viewBox="0 0 85 55">
<defs>
</defs>
<path d="M85,0 L80,0" stroke="black" stroke-width="2" />
<path d="M80,0 L80,-8" stroke="black" stroke-width="2" />
<path d="M85,-1.5 L78.5,-1.5" stroke="black" stroke-width="2" />
<path d="M78.5,-1.5 L78.5,-8" stroke="black" stroke-width="2" />
<path d="M85,55 L80,55" stroke="black" stroke-width="2" />
<path d="M80,55 L80,63" stroke="black" stroke-width="2" />
<path d="M85,56.5 L78.5,56.5" stroke="black" stroke-width="2" />
<path d="M78.5,56.5 L78.5,63" stroke="black" stroke-width="2" />
<path d="M5,0 L0,0" stroke="black" stroke-width="2" />
<path d="M5,0 L5,-8" stroke="black" stroke-width="2" />
<path d="M6.5,-1.5 L0,-1.5" stroke="black" stroke-width="2" />
<path d="M6.5,-1.5 L6.5,-8" stroke="black" stroke-width="2" />
<path d="M5,55 L0,55" stroke="black" stroke-width="2" />
<path d="M5,55 L5,63" stroke="black" stroke-width="2" />
<path d="M6.5,56.5 L0,56.5" stroke="black" stroke-width="2" />
<path d="M6.5,56.5 L6.5,63" stroke="black" stroke-width="2" />
<path d="M35,-3 L50,-3" stroke="black" stroke-width="2" />
<path d="M42.5,-6.5 L42.5,-1.5" stroke="black" stroke-width="2" />
<path d="M35,58 L50,58" stroke="black" stroke-width="2" />
<path d="M42.5,56.5 L42.5,61.5" stroke="black" stroke-width="2" />
<path d="M80,27.5 L85,27.5" stroke="black" stroke-width="2" />
<path d="M81.5,20 L81.5,35" stroke="black" stroke-width="2" />
<path d="M0,27.5 L5,27.5" stroke="black" stroke-width="2" />
<path d="M3.5,20 L3.5,35" stroke="black" stroke-width="2" />
</svg>